<?xml version="1.0" encoding="utf-8"?>
<svg viewBox="0 0 512 512" xmlns="http://www.w3.org/2000/svg">
  <path d="M 216 0 L 296 0 C 309.3 0 320 10.7 320 24 L 320 192 L 407.7 192 C 425.5 192 434.4 213.5 421.8 226.1 L 269.7 378.3 C 262.2 385.8 249.9 385.8 242.4 378.3 L 90.1 226.1 C 77.5 213.5 86.4 192 104.2 192 L 192 192 L 192 24 C 192 10.7 202.7 0 216 0 Z M 512 376 L 512 488 C 512 501.3 501.3 512 488 512 L 24 512 C 10.7 512 0 501.3 0 488 L 0 376 C 0 362.7 10.7 352 24 352 L 170.7 352 L 219.7 401 C 239.8 421.1 272.2 421.1 292.3 401 L 341.3 352 L 488 352 C 501.3 352 512 362.7 512 376 Z M 388 464 C 388 453 379 444 368 444 C 357 444 348 453 348 464 C 348 475 357 484 368 484 C 379 484 388 475 388 464 Z M 452 464 C 452 453 443 444 432 444 C 421 444 412 453 412 464 C 412 475 421 484 432 484 C 443 484 452 475 452 464 Z"/>
</svg>