<?xml version="1.0" encoding="utf-8"?>
<svg viewBox="0 0 512 512" xmlns="http://www.w3.org/2000/svg">
  <path d="M 441 105 L 343.1 7 C 338.6 2.5 332.5 0 326.1 0 L 320 0 L 320 128 L 448 128 L 448 121.9 C 448 115.6 445.5 109.5 441 105 Z M 288 136 L 288 0 L 88 0 C 74.7 0 64 10.7 64 24 L 64 488 C 64 501.3 74.7 512 88 512 L 424 512 C 437.3 512 448 501.3 448 488 L 448 160 L 312 160 C 298.8 160 288 149.2 288 136 Z M 352 296 L 352 344 C 352 348.4 348.4 352 344 352 L 288 352 L 288 408 C 288 412.4 284.4 416 280 416 L 232 416 C 227.6 416 224 412.4 224 408 L 224 352 L 168 352 C 163.6 352 160 348.4 160 344 L 160 296 C 160 291.6 163.6 288 168 288 L 224 288 L 224 232 C 224 227.6 227.6 224 232 224 L 280 224 C 284.4 224 288 227.6 288 232 L 288 288 L 344 288 C 348.4 288 352 291.6 352 296 Z"/>
</svg>