<?xml version="1.0" encoding="utf-8"?>
<svg viewBox="0 0 512 512" xmlns="http://www.w3.org/2000/svg">
  <path d="M 288 136 L 288 0 L 88 0 C 74.7 0 64 10.7 64 24 L 64 488 C 64 501.3 74.7 512 88 512 L 424 512 C 437.3 512 448 501.3 448 488 L 448 160 L 312 160 C 298.8 160 288 149.2 288 136 Z M 353.18 352.01 L 288 352.01 L 288 432.01 C 288 440.85 280.84 448.01 272 448.01 L 240 448.01 C 231.16 448.01 224 440.85 224 432.01 L 224 352.01 L 158.82 352.01 C 144.54 352.01 137.41 334.72 147.55 324.65 L 243.97 228.95 C 250.62 222.34 261.36 222.34 268.01 228.95 L 364.43 324.65 C 374.58 334.72 367.46 352.01 353.18 352.01 Z M 441 105 L 343.1 7 C 338.6 2.5 332.5 0 326.1 0 L 320 0 L 320 128 L 448 128 L 448 121.9 C 448 115.6 445.5 109.5 441 105 Z"/>
</svg>