<?xml version="1.0" encoding="utf-8"?>
<svg viewBox="0 0 512 512" xmlns="http://www.w3.org/2000/svg">
  <path d="M 64 464 C 64 490.51 85.49 512 112 512 L 400 512 C 426.51 512 448 490.51 448 464 L 448 128 L 64 128 Z M 336 208 C 336 195.683 349.333 187.985 360 194.144 C 364.95 197.002 368 202.284 368 208 L 368 432 C 368 444.317 354.667 452.015 344 445.856 C 339.05 442.998 336 437.716 336 432 Z M 240 208 C 240 195.683 253.333 187.985 264 194.144 C 268.95 197.002 272 202.284 272 208 L 272 432 C 272 444.317 258.667 452.015 248 445.856 C 243.05 442.998 240 437.716 240 432 Z M 144 208 C 144 195.683 157.333 187.985 168 194.144 C 172.95 197.002 176 202.284 176 208 L 176 432 C 176 444.317 162.667 452.015 152 445.856 C 147.05 442.998 144 437.716 144 432 Z M 464 32 L 344 32 L 334.6 13.3 C 330.538 5.146 322.21 -0.006 313.1 0 L 198.8 0 C 189.707 -0.035 181.394 5.131 177.4 13.3 L 168 32 L 48 32 C 39.163 32 32 39.164 32 48 L 32 80 C 32 88.837 39.163 96 48 96 L 464 96 C 472.837 96 480 88.837 480 80 L 480 48 C 480 39.164 472.837 32 464 32 Z"/>
</svg>