<?xml version="1.0" encoding="utf-8"?>
<svg viewBox="0 0 496 496" xmlns="http://www.w3.org/2000/svg">
  <path d="M 248 496 C 111 496 0 385 0 248 C 0 111 111 0 248 0 C 385 0 496 111 496 248 C 496 385 385 496 248 496 Z M 276.9 352.4 L 201.4 280 L 384 280 C 397.3 280 408 269.3 408 256 L 408 240 C 408 226.7 397.3 216 384 216 L 201.4 216 L 276.9 143.6 C 286.6 134.3 286.8 118.8 277.3 109.3 L 266.3 98.4 C 256.9 89 241.7 89 232.4 98.4 L 99.7 231 C 90.3 240.4 90.3 255.6 99.7 264.9 L 232.4 397.6 C 241.8 407 257 407 266.3 397.6 L 277.3 386.7 C 286.8 377.2 286.6 361.7 276.9 352.4 Z"/>
</svg>