<?xml version="1.0" encoding="utf-8"?>
<svg viewBox="0 0 496 496" xmlns="http://www.w3.org/2000/svg">
  <path d="M 248 0 C 385 0 496 111 496 248 C 496 385 385 496 248 496 C 111 496 0 385 0 248 C 0 111 111 0 248 0 Z M 219.1 143.6 L 294.6 216 L 112 216 C 98.7 216 88 226.7 88 240 L 88 256 C 88 269.3 98.7 280 112 280 L 294.6 280 L 219.1 352.4 C 209.4 361.7 209.2 377.2 218.7 386.7 L 229.7 397.6 C 239.1 407 254.3 407 263.6 397.6 L 396.3 265 C 405.7 255.6 405.7 240.4 396.3 231.1 L 263.6 98.3 C 254.2 88.9 239 88.9 229.7 98.3 L 218.7 109.2 C 209.2 118.8 209.4 134.3 219.1 143.6 Z"/>
</svg>