<?xml version="1.0" encoding="utf-8"?>
<svg viewBox="0 0 512 512" xmlns="http://www.w3.org/2000/svg">
  <path d="M 511.988 288.9 C 511.51 306.33 496.771 320 479.335 320 L 424 320 L 424 336 C 424 357.864 419.118 378.584 410.4 397.145 L 470.628 457.373 C 483.124 469.87 483.124 490.131 470.628 502.628 C 458.13 515.125 437.869 515.124 425.372 502.628 L 370.636 447.892 C 345.886 467.965 314.351 480 280 480 L 280 236 C 280 229.373 274.627 224 268 224 L 244 224 C 237.373 224 232 229.373 232 236 L 232 480 C 197.649 480 166.114 467.965 141.364 447.892 L 86.628 502.628 C 74.13 515.125 53.869 515.124 41.372 502.628 C 28.876 490.131 28.876 469.87 41.372 457.373 L 101.6 397.145 C 92.882 378.584 88 357.864 88 336 L 88 320 L 32.666 320 C 15.23 320 0.491 306.33 0.013 288.9 C -0.484 270.816 14.028 256 32 256 L 88 256 L 88 197.255 L 41.372 150.627 C 28.876 138.13 28.876 117.869 41.372 105.372 C 53.87 92.875 74.13 92.875 86.628 105.372 L 141.255 160 L 370.744 160 L 425.371 105.373 C 437.869 92.876 458.129 92.876 470.627 105.373 C 483.123 117.87 483.123 138.131 470.627 150.628 L 424 197.255 L 424 256 L 480 256 C 497.972 256 512.484 270.816 511.988 288.9 Z M 257 0 C 195.144 0 145 50.144 145 112 L 369 112 C 369 50.144 318.856 0 257 0 Z"/>
</svg>