<?xml version="1.0" encoding="utf-8"?>
<svg viewBox="0 0 512 512" xmlns="http://www.w3.org/2000/svg">
  <path d="M 432 0 L 80 0 C 54.4 0 32 22.4 32 48 L 32 464 C 32 489.6 54.4 512 80 512 L 432 512 C 457.6 512 480 489.6 480 464 L 480 48 C 480 22.4 457.6 0 432 0 Z M 160 435.2 C 160 441.6 153.6 448 147.2 448 L 108.8 448 C 102.4 448 96 441.6 96 435.2 L 96 396.8 C 96 390.4 102.4 384 108.8 384 L 147.2 384 C 153.6 384 160 390.4 160 396.8 L 160 435.2 Z M 160 307.2 C 160 313.6 153.6 320 147.2 320 L 108.8 320 C 102.4 320 96 313.6 96 307.2 L 96 268.8 C 96 262.4 102.4 256 108.8 256 L 147.2 256 C 153.6 256 160 262.4 160 268.8 L 160 307.2 Z M 288 435.2 C 288 441.6 281.6 448 275.2 448 L 236.8 448 C 230.4 448 224 441.6 224 435.2 L 224 396.8 C 224 390.4 230.4 384 236.8 384 L 275.2 384 C 281.6 384 288 390.4 288 396.8 L 288 435.2 Z M 288 307.2 C 288 313.6 281.6 320 275.2 320 L 236.8 320 C 230.4 320 224 313.6 224 307.2 L 224 268.8 C 224 262.4 230.4 256 236.8 256 L 275.2 256 C 281.6 256 288 262.4 288 268.8 L 288 307.2 Z M 416 435.2 C 416 441.6 409.6 448 403.2 448 L 364.8 448 C 358.4 448 352 441.6 352 435.2 L 352 268.8 C 352 262.4 358.4 256 364.8 256 L 403.2 256 C 409.6 256 416 262.4 416 268.8 L 416 435.2 Z M 416 179.2 C 416 185.6 409.6 192 403.2 192 L 108.8 192 C 102.4 192 96 185.6 96 179.2 L 96 76.8 C 96 70.4 102.4 64 108.8 64 L 403.2 64 C 409.6 64 416 70.4 416 76.8 L 416 179.2 Z"/>
</svg>