<?xml version="1.0" encoding="utf-8"?>
<svg viewBox="0 0 496 496" xmlns="http://www.w3.org/2000/svg">
  <path d="M 496 248 C 496 384.967 384.967 496 248 496 C 111.033 496 0 384.967 0 248 C 0 111.033 111.033 0 248 0 C 384.967 0 496 111.033 496 248 Z M 219.314 379.314 L 403.314 195.314 C 409.562 189.066 409.562 178.935 403.314 172.687 L 380.687 150.06 C 374.439 143.811 364.308 143.811 358.059 150.06 L 208 300.118 L 137.941 230.059 C 131.693 223.811 121.562 223.811 115.313 230.059 L 92.686 252.686 C 86.438 258.934 86.438 269.065 92.686 275.313 L 196.686 379.313 C 202.935 385.562 213.065 385.562 219.314 379.314 Z"/>
</svg>