<?xml version="1.0" encoding="utf-8"?>
<svg viewBox="0 0 512 512" xmlns="http://www.w3.org/2000/svg">
  <path d="M 400 64 L 320 64 C 320 28.7 291.3 0 256 0 C 220.7 0 192 28.7 192 64 L 112 64 C 85.5 64 64 85.5 64 112 L 64 464 C 64 490.5 85.5 512 112 512 L 400 512 C 426.5 512 448 490.5 448 464 L 448 112 C 448 85.5 426.5 64 400 64 Z M 160 424 C 146.7 424 136 413.3 136 400 C 136 386.7 146.7 376 160 376 C 173.3 376 184 386.7 184 400 C 184 413.3 173.3 424 160 424 Z M 160 328 C 146.7 328 136 317.3 136 304 C 136 290.7 146.7 280 160 280 C 173.3 280 184 290.7 184 304 C 184 317.3 173.3 328 160 328 Z M 160 232 C 146.7 232 136 221.3 136 208 C 136 194.7 146.7 184 160 184 C 173.3 184 184 194.7 184 208 C 184 221.3 173.3 232 160 232 Z M 256 40 C 269.3 40 280 50.7 280 64 C 280 77.3 269.3 88 256 88 C 242.7 88 232 77.3 232 64 C 232 50.7 242.7 40 256 40 Z M 384 408 C 384 412.4 380.4 416 376 416 L 232 416 C 227.6 416 224 412.4 224 408 L 224 392 C 224 387.6 227.6 384 232 384 L 376 384 C 380.4 384 384 387.6 384 392 L 384 408 Z M 384 312 C 384 316.4 380.4 320 376 320 L 232 320 C 227.6 320 224 316.4 224 312 L 224 296 C 224 291.6 227.6 288 232 288 L 376 288 C 380.4 288 384 291.6 384 296 L 384 312 Z M 384 216 C 384 220.4 380.4 224 376 224 L 232 224 C 227.6 224 224 220.4 224 216 L 224 200 C 224 195.6 227.6 192 232 192 L 376 192 C 380.4 192 384 195.6 384 200 L 384 216 Z"/>
</svg>