<?xml version="1.0" encoding="utf-8"?>
<svg viewBox="0 0 640 640" xmlns="http://www.w3.org/2000/svg">
  <path d="M 537.6 290.6 C 541.7 279.9 544 268.2 544 256 C 544 203 501 160 448 160 C 428.3 160 409.9 166 394.7 176.2 C 367 128.2 315.3 96 256 96 C 167.6 96 96 167.6 96 256 C 96 258.7 96.1 261.4 96.2 264.1 C 40.2 283.8 0 337.2 0 400 C 0 479.5 64.5 544 144 544 L 512 544 C 582.7 544 640 486.7 640 416 C 640 354.1 596 302.4 537.6 290.6 Z M 404.7 379.3 L 299.3 484.7 C 293.1 490.9 282.9 490.9 276.7 484.7 L 171.3 379.3 C 161.2 369.2 168.4 352 182.6 352 L 248 352 L 248 240 C 248 231.2 255.2 224 264 224 L 312 224 C 320.8 224 328 231.2 328 240 L 328 352 L 393.4 352 C 407.6 352 414.8 369.2 404.7 379.3 Z"/>
</svg>