<?xml version="1.0" encoding="utf-8"?>
<svg viewBox="0 0 512 512" xmlns="http://www.w3.org/2000/svg">
  <path d="M 352 448 L 352 488 C 352 501.255 341.255 512 328 512 L 56 512 C 42.745 512 32 501.255 32 488 L 32 120 C 32 106.745 42.745 96 56 96 L 128 96 L 128 392 C 128 422.879 153.121 448 184 448 L 352 448 Z M 352 104 L 352 0 L 184 0 C 170.745 0 160 10.745 160 24 L 160 392 C 160 405.255 170.745 416 184 416 L 456 416 C 469.255 416 480 405.255 480 392 L 480 128 L 376 128 C 362.8 128 352 117.2 352 104 Z M 472.971 72.971 L 407.029 7.029 C 402.528 2.528 396.424 0 390.059 0 L 384 0 L 384 96 L 480 96 L 480 89.941 C 480 83.576 477.472 77.472 472.971 72.971 Z"/>
</svg>