<?xml version="1.0" encoding="utf-8"?>
<svg viewBox="0 0 512 512" xmlns="http://www.w3.org/2000/svg">
  <path d="M 288 136 L 288 0 L 88 0 C 74.7 0 64 10.7 64 24 L 64 488 C 64 501.3 74.7 512 88 512 L 424 512 C 437.3 512 448 501.3 448 488 L 448 160 L 312 160 C 298.8 160 288 149.2 288 136 Z M 364.45 347.36 L 268.03 443.06 C 261.38 449.67 250.64 449.67 243.99 443.06 L 147.57 347.36 C 137.42 337.29 144.54 320 158.82 320 L 224 320 L 224 240 C 224 231.16 231.16 224 240 224 L 272 224 C 280.84 224 288 231.16 288 240 L 288 320 L 353.18 320 C 367.46 320 374.58 337.29 364.45 347.36 Z M 441 105 L 343.1 7 C 338.6 2.5 332.5 0 326.1 0 L 320 0 L 320 128 L 448 128 L 448 121.9 C 448 115.6 445.5 109.5 441 105 Z"/>
</svg>