<?xml version="1.0" encoding="utf-8"?>
<svg viewBox="0 0 576 576" xmlns="http://www.w3.org/2000/svg">
  <path d="M 485.5 32 L 576 192 L 474.9 192 L 405.7 32 L 485.5 32 Z M 357.5 32 L 426.7 192 L 149.3 192 L 218.5 32 L 357.5 32 Z M 90.5 32 L 170.3 32 L 101.1 192 L 0 192 L 90.5 32 Z M 0 224 L 100.7 224 L 223.7 475.7 C 225.2 478.8 221 481.6 218.7 479 L 0 224 Z M 148.2 224 L 427.8 224 L 290.8 542.2 C 289.8 544.6 286.3 544.6 285.3 542.2 L 148.2 224 Z M 352.3 475.7 L 475.3 224 L 576 224 L 357.3 478.9 C 355 481.6 350.8 478.8 352.3 475.7 Z"/>
</svg>