<?xml version="1.0" encoding="utf-8"?>
<svg viewBox="0 0 576 576" xmlns="http://www.w3.org/2000/svg">
  <path d="M 280.363 180.235 L 95.993 332.085 L 95.993 495.975 C 95.993 504.812 103.156 511.975 111.993 511.975 L 224.053 511.685 C 232.858 511.641 239.973 504.49 239.973 495.685 L 239.973 399.975 C 239.973 391.138 247.136 383.975 255.973 383.975 L 319.973 383.975 C 328.809 383.975 335.973 391.138 335.973 399.975 L 335.973 495.615 C 335.945 504.471 343.117 511.665 351.973 511.665 L 463.993 511.975 C 472.829 511.975 479.993 504.812 479.993 495.975 L 479.993 331.975 L 295.663 180.235 C 291.198 176.636 284.828 176.636 280.363 180.235 Z M 571.593 283.445 L 487.993 214.535 L 487.993 76.025 C 487.993 69.398 482.62 64.025 475.993 64.025 L 419.993 64.025 C 413.365 64.025 407.993 69.398 407.993 76.025 L 407.993 148.635 L 318.463 74.975 C 300.744 60.394 275.182 60.394 257.463 74.975 L 4.333 283.445 C -0.778 287.669 -1.494 295.237 2.733 300.345 L 28.233 331.345 C 32.449 336.471 40.025 337.202 45.143 332.975 L 280.363 139.235 C 284.828 135.636 291.198 135.636 295.663 139.235 L 530.893 332.975 C 536.001 337.202 543.569 336.486 547.793 331.375 L 573.293 300.375 C 577.517 295.236 576.754 287.642 571.593 283.445 Z"/>
</svg>