<?xml version="1.0" encoding="utf-8"?>
<svg viewBox="0 0 496 496" xmlns="http://www.w3.org/2000/svg">
  <path d="M 248 0 C 111 0 0 111 0 248 C 0 385 111 496 248 496 C 385 496 496 385 496 248 C 496 111 385 0 248 0 Z M 232 328 C 232 336.8 224.8 344 216 344 L 168 344 C 159.2 344 152 336.8 152 328 L 152 168 C 152 159.2 159.2 152 168 152 L 216 152 C 224.8 152 232 159.2 232 168 L 232 328 Z M 344 328 C 344 336.8 336.8 344 328 344 L 280 344 C 271.2 344 264 336.8 264 328 L 264 168 C 264 159.2 271.2 152 280 152 L 328 152 C 336.8 152 344 159.2 344 168 L 344 328 Z"/>
</svg>