<?xml version="1.0" encoding="utf-8"?>
<svg viewBox="0 0 496 496" xmlns="http://www.w3.org/2000/svg">
  <path d="M 248 0 C 111 0 0 111 0 248 C 0 385 111 496 248 496 C 385 496 496 385 496 248 C 496 111 385 0 248 0 Z M 392 276 C 392 282.6 386.6 288 380 288 L 288 288 L 288 380 C 288 386.6 282.6 392 276 392 L 220 392 C 213.4 392 208 386.6 208 380 L 208 288 L 116 288 C 109.4 288 104 282.6 104 276 L 104 220 C 104 213.4 109.4 208 116 208 L 208 208 L 208 116 C 208 109.4 213.4 104 220 104 L 276 104 C 282.6 104 288 109.4 288 116 L 288 208 L 380 208 C 386.6 208 392 213.4 392 220 L 392 276 Z"/>
</svg>