<?xml version="1.0" encoding="utf-8"?>
<svg viewBox="0 0 496 496" xmlns="http://www.w3.org/2000/svg">
  <path d="M 496 248 C 496 384.997 384.957 496 248 496 C 111.043 496 0 384.997 0 248 C 0 111.083 111.043 0 248 0 C 384.957 0 496 111.083 496 248 Z M 254.655 82 C 200.158 82 165.4 104.957 138.106 145.758 C 134.57 151.044 135.753 158.173 140.821 162.016 L 175.52 188.326 C 180.725 192.273 188.141 191.334 192.185 186.204 C 210.049 163.546 222.298 150.407 249.488 150.407 C 269.917 150.407 295.186 163.555 295.186 183.365 C 295.186 198.341 282.823 206.032 262.652 217.341 C 239.128 230.528 208 246.941 208 288 L 208 292 C 208 298.627 213.373 304 220 304 L 276 304 C 282.627 304 288 298.627 288 292 L 288 290.667 C 288 262.205 371.186 261.02 371.186 184 C 371.186 125.998 311.021 82 254.655 82 Z M 248 330 C 222.635 330 202 350.635 202 376 C 202 401.364 222.635 422 248 422 C 273.365 422 294 401.364 294 376 C 294 350.635 273.365 330 248 330 Z"/>
</svg>