<?xml version="1.0" encoding="utf-8"?>
<svg viewBox="0 0 448 448" xmlns="http://www.w3.org/2000/svg">
  <path d="M 433.941 97.941 L 350.059 14.059 C 341.057 5.057 328.848 0 316.118 0 L 48 0 C 21.49 0 0 21.49 0 48 L 0 400 C 0 426.51 21.49 448 48 448 L 400 448 C 426.51 448 448 426.51 448 400 L 448 131.882 C 448 119.152 442.943 106.943 433.941 97.941 Z M 224 384 C 188.654 384 160 355.346 160 320 C 160 284.654 188.654 256 224 256 C 259.346 256 288 284.654 288 320 C 288 355.346 259.346 384 224 384 Z M 320 79.48 L 320 180 C 320 186.627 314.627 192 308 192 L 76 192 C 69.373 192 64 186.627 64 180 L 64 76 C 64 69.373 69.373 64 76 64 L 304.52 64 C 307.703 64 310.755 65.264 313.005 67.515 L 316.485 70.995 C 318.736 73.245 320 76.297 320 79.48 Z"/>
</svg>