<?xml version="1.0" encoding="utf-8"?>
<svg viewBox="0 0 512 512" xmlns="http://www.w3.org/2000/svg">
  <path d="M 497 239.021 L 329 71.021 C 314 56.021 288 66.521 288 88.021 L 288 184.021 L 152 184.021 C 138.7 184.021 128 194.721 128 208.021 L 128 304.021 C 128 317.321 138.7 328.021 152 328.021 L 288 328.021 L 288 424.021 C 288 445.421 313.9 456.021 329 441.021 L 497 273.021 C 506.3 263.621 506.3 248.421 497 239.021 Z M 192 76.021 L 192 116.021 C 192 122.621 186.6 128.021 180 128.021 L 96 128.021 C 78.3 128.021 64 142.321 64 160.021 L 64 352.021 C 64 369.721 78.3 384.021 96 384.021 L 180 384.021 C 186.6 384.021 192 389.421 192 396.021 L 192 436.021 C 192 442.621 186.6 448.021 180 448.021 L 96 448.021 C 43 448.021 0 405.021 0 352.021 L 0 160.021 C 0 107.021 43 64.021 96 64.021 L 180 64.021 C 186.6 64.021 192 69.421 192 76.021 Z" transform="matrix(-1, 0, 0, -1, 503.974976, 512.02076)"/>
</svg>